HIERARCHY
ROOT Hips
{
	OFFSET -0.179506 -22.333345 2.821913
	CHANNELS 6 Xposition Yposition Zposition Zrotation Yrotation Xrotation 
	JOINT LeftUpLeg
	{
		OFFSET 6.951974 -9.140623 -0.681533
		CHANNELS 3 Zrotation Yrotation Xrotation
		JOINT LeftLeg
		{
			OFFSET 3.427654 -37.519855 -0.449580
			CHANNELS 3 Zrotation Yrotation Xrotation
			JOINT LeftFoot
			{
				OFFSET -1.359570 -39.796059 -4.369333
				CHANNELS 3 Zrotation Yrotation Xrotation
				JOINT LeftToe
				{
					OFFSET 2.635814 -5.579078 11.928840
					CHANNELS 3 Zrotation Yrotation Xrotation
					End Site
					{
						OFFSET 0.000000 0.000000 0.000000
					}
				}
			}
		}
	}
	JOINT RightUpLeg
	{
		OFFSET -6.767048 -9.052170 -0.431982
		CHANNELS 3 Zrotation Yrotation Xrotation
		JOINT RightLeg
		{
			OFFSET -3.829005 -38.256897 -0.885003
			CHANNELS 3 Zrotation Yrotation Xrotation
			JOINT RightFoot
			{
				OFFSET 1.577377 -39.841461 -4.231180
				CHANNELS 3 Zrotation Yrotation Xrotation
				JOINT RightToe
				{
					OFFSET -2.537174 -4.814398 12.334795
					CHANNELS 3 Zrotation Yrotation Xrotation
					End Site
					{
						OFFSET 0.000000 0.000000 0.000000
					}
				}
			}
		}
	}
	JOINT Spine
	{
		OFFSET -0.253288 10.896323 -2.669631
		CHANNELS 3 Zrotation Yrotation Xrotation
		JOINT Spine1
		{
			OFFSET 0.548704 13.518043 0.109247
			CHANNELS 3 Zrotation Yrotation Xrotation
			JOINT Spine2
			{
				OFFSET 0.145701 5.292222 2.542457
				CHANNELS 3 Zrotation Yrotation Xrotation
				JOINT Neck
				{
					OFFSET -0.277840 21.387037 -4.285703
					CHANNELS 3 Zrotation Yrotation Xrotation
					JOINT Head
					{
						OFFSET 0.515184 6.496960 5.134897
						CHANNELS 3 Zrotation Yrotation Xrotation
						End Site
						{
							OFFSET 0.000000 0.000000 0.000000
						}
					}
				}
				JOINT LeftShoulder
				{
					OFFSET 7.884473 12.174932 -3.408961
					CHANNELS 3 Zrotation Yrotation Xrotation
					JOINT LeftArm
					{
						OFFSET 9.097692 3.046888 -0.886815
						CHANNELS 3 Zrotation Yrotation Xrotation
						JOINT LeftForeArm
						{
							OFFSET 25.961220 -1.277207 -2.745643
							CHANNELS 3 Zrotation Yrotation Xrotation
							JOINT LeftHand
							{
								OFFSET 24.923361 0.898606 -0.117091
								CHANNELS 3 Zrotation Yrotation Xrotation
								End Site
								{
									OFFSET 0.000000 0.000000 0.000000
								}
							}
						}
					}
				}
				JOINT RightShoulder
				{
					OFFSET -8.175920 11.883285 -3.861528
					CHANNELS 3 Zrotation Yrotation Xrotation
					JOINT RightArm
					{
						OFFSET -9.601238 3.255117 -0.914307
						CHANNELS 3 Zrotation Yrotation Xrotation
						JOINT RightForeArm
						{
							OFFSET -25.374195 -1.332924 -2.140099
							CHANNELS 3 Zrotation Yrotation Xrotation
							JOINT RightHand
							{
								OFFSET -25.529810 0.777228 -0.555919
								CHANNELS 3 Zrotation Yrotation Xrotation
								End Site
								{
									OFFSET 0.000000 0.000000 0.000000
								}
							}
						}
					}
				}
			}
		}
	}
}
MOTION
Frames: 10
Frame Time: 0.033333
16.332684 -60.634895 86.794617 -118.717893 3.109145 83.387137 15.626814 8.417883 -9.941894 -5.939503 7.211384 37.248087 1.761694 11.548957 -28.582723 nan nan nan -17.057936 -15.489881 -15.378218 3.054290 -17.022859 27.166307 4.194251 -5.967021 -2.437723 nan nan nan -4.934227 2.380420 6.016162 7.179214 -5.733042 10.090051 1.199760 0.468515 -4.731590 2.841415 -18.791806 12.357030 3.351403 -19.345509 17.740204 -21.085848 -15.408189 3.397189 -55.535643 -48.919987 28.609764 147.563830 -79.751494 -124.467724 0.436447 -20.444488 3.206310 23.086924 10.019758 -2.110188 30.665314 13.750318 -9.243370 -74.431757 49.494472 -65.569205 2.256924 7.828428 -0.773819 
16.300936 -60.645065 86.795227 -118.497163 3.246575 83.036233 15.768749 8.259658 -9.693823 -5.330409 7.686343 37.403648 1.847167 10.659997 -28.517625 nan nan nan -17.288858 -15.227077 -14.611084 2.970214 -18.061455 26.851748 3.997009 -5.000498 -2.422580 nan nan nan -5.082219 2.750855 7.960528 7.638270 -5.807583 8.675073 1.666803 0.272104 -5.622745 3.384741 -18.306002 11.676515 2.160867 -20.030610 18.465897 -20.183517 -14.151214 1.640792 -62.137608 -47.543142 34.254812 122.148820 -81.293507 -102.376516 4.435079 -29.009621 -9.923705 22.088003 9.227954 -5.396236 31.706438 12.629455 -6.037646 -72.687742 49.486833 -63.670731 1.576979 10.139813 -2.306699 
16.283676 -60.641331 86.854691 -118.608340 3.238314 82.901464 15.798811 8.276344 -9.336357 -5.225024 7.862988 37.095451 1.586208 10.389747 -28.374319 nan nan nan -17.261316 -15.059554 -14.348655 2.934426 -18.157370 26.549155 4.170320 -4.837305 -2.432417 nan nan nan -5.153806 2.852035 8.190609 7.669809 -5.745012 8.205446 1.869178 0.230037 -4.407024 3.971791 -17.710646 10.930397 3.109131 -20.506351 16.005690 -19.920225 -13.764308 -0.037566 -63.661040 -46.918324 35.641358 120.315705 -81.212905 -101.158409 3.980051 -29.957224 -10.963071 21.822213 9.193319 -7.044065 31.928811 12.465200 -5.248643 -72.496929 49.582156 -63.800550 2.130902 10.098708 -2.010802 
16.280643 -60.620659 86.889008 -118.748175 3.250764 82.868774 15.863329 8.344261 -9.144618 -5.049545 8.160630 36.938144 1.357983 9.978092 -28.346259 nan nan nan -17.207370 -14.812645 -14.255385 2.820582 -18.452110 26.388210 4.383680 -4.513114 -2.566287 nan nan nan -5.302452 2.995529 8.141844 7.757702 -5.718967 8.037660 2.053415 0.290897 -4.062184 4.215690 -17.011928 10.668569 3.227316 -20.644170 15.351976 -19.579750 -13.323495 -0.508220 -67.415371 -45.906959 37.211915 114.909683 -80.269171 -97.529737 0.132265 -31.226397 -12.513242 21.679468 9.133538 -7.362397 32.056728 12.460755 -4.970647 -72.527124 49.148915 -64.052901 3.941283 9.988941 -1.514963 
16.274996 -60.587147 86.912338 -118.918208 3.215473 83.062316 15.823997 8.498641 -9.263994 -5.007637 8.182078 36.871740 1.355155 10.035449 -28.349083 nan nan nan -17.086963 -14.681560 -14.478030 2.799761 -18.327482 26.290304 4.489306 -4.538744 -2.434032 nan nan nan -5.408622 3.157133 7.742652 7.797575 -5.641972 7.889146 2.141554 0.276632 -3.825183 3.940007 -16.959630 10.943614 3.597218 -20.452087 14.982567 -19.896505 -13.579433 -0.345687 -66.848838 -45.687376 36.809710 114.952826 -80.224401 -97.681991 0.079497 -31.492232 -12.941601 21.808230 9.226427 -7.323114 31.864145 12.169966 -5.078459 -72.460988 49.265043 -64.018703 3.906800 10.019010 -1.550020 
16.269598 -60.579197 86.979561 -118.729771 3.267330 82.592571 15.866031 8.599914 -8.794472 -4.915464 7.828170 36.859897 1.817198 9.835975 -28.129801 nan nan nan -17.188515 -14.881948 -13.628998 3.154663 -17.955168 25.766788 5.105710 -3.976277 -3.328742 nan nan nan -5.134634 3.334018 8.871094 7.868340 -5.838343 6.691157 2.008449 0.026205 -2.822259 3.899272 -16.873319 10.131274 3.978681 -20.463270 14.718720 -19.195352 -12.766251 -0.983084 -68.917241 -45.738835 37.693692 121.447161 -79.062843 -107.537978 -4.534579 -27.082307 -15.121309 21.899077 9.191632 -7.847345 32.069694 12.441787 -4.951430 -73.362299 49.250032 -65.420507 6.520281 7.961859 0.079030 
16.286264 -60.553516 87.004585 -118.761250 3.267307 82.474382 15.908671 8.630575 -8.558783 -4.888348 7.858260 36.691458 1.935160 9.726003 -28.065895 nan nan nan -17.149870 -14.834151 -13.386385 3.090955 -17.968545 25.568149 5.171835 -3.882458 -3.240040 nan nan nan -5.112080 3.328800 8.951872 7.810952 -5.837536 7.154542 1.956060 0.005344 -3.223923 4.316721 -16.579644 9.765236 3.628725 -20.728275 14.954211 -18.885413 -12.587350 -1.082795 -69.623804 -45.532188 37.800264 121.895155 -78.909899 -107.889780 -5.996360 -26.899292 -13.967088 21.960219 9.208541 -7.796401 32.354361 12.577666 -4.702124 -73.603159 48.885998 -65.434069 7.196512 7.928770 0.178992 
16.295168 -60.532917 87.026558 -118.812568 3.271428 82.382326 15.924603 8.618071 -8.363252 -4.907673 7.808150 36.513378 1.971234 9.815258 -28.045829 nan nan nan -17.121008 -14.749367 -13.170384 3.068895 -17.999634 25.323883 5.248900 -3.835362 -3.111073 nan nan nan -5.234455 3.212680 9.025564 7.871094 -5.877158 7.430140 2.005788 0.181831 -3.471075 4.353475 -16.421136 9.590301 3.552787 -20.837761 15.054336 -18.769314 -12.332791 -1.233083 -70.417846 -45.779459 38.344965 119.828586 -79.607110 -106.483208 -4.810201 -27.733311 -15.100951 21.983652 9.149950 -7.782312 32.367385 12.711449 -4.590821 -73.392210 48.890903 -65.233655 6.804152 8.218029 0.110422 
16.310671 -60.513916 87.052559 -118.836245 3.293606 82.375685 15.957631 8.613871 -8.302940 -4.902735 7.802077 36.395844 1.938296 9.841009 -27.962126 nan nan nan -17.040266 -14.690414 -13.077115 3.027812 -18.012368 25.127295 5.279960 -3.877995 -2.986698 nan nan nan -5.309067 3.123739 9.004252 7.924426 -5.900303 7.462341 2.053934 0.259942 -3.488875 4.239319 -16.353742 9.622942 3.604702 -20.853950 15.015320 -18.734052 -12.202048 -1.311782 -70.594758 -45.855319 38.472927 119.165761 -79.985615 -106.078218 -4.164867 -27.973303 -15.652830 22.004174 9.175243 -7.735415 32.384247 12.754104 -4.585872 -73.263356 48.944271 -65.228871 6.560410 8.370421 0.059025 
16.321180 -60.495983 87.075768 -118.885956 3.297097 82.377887 15.975739 8.622070 -8.243007 -4.873171 7.827340 36.304117 1.892783 9.812887 -27.904877 nan nan nan -16.980372 -14.638339 -12.994833 3.003431 -18.020490 24.930436 5.320447 -3.873647 -2.811546 nan nan nan -5.330253 3.076318 8.911964 7.914446 -5.893910 7.609057 2.055890 0.265067 -3.572535 4.304974 -16.252607 9.711715 3.541405 -20.876157 15.001558 -18.667381 -12.151516 -1.324211 -70.414354 -45.700223 38.287574 119.948705 -79.865580 -106.592786 -4.726799 -27.815975 -15.100381 22.023484 9.235333 -7.612198 32.528629 12.815768 -4.546390 -73.354545 48.810939 -65.259595 6.827920 8.338843 -0.020182 
